<svg id="visual" viewBox="0 0 320 100" width="320" height="100" xmlns="http://www.w3.org/2000/svg" xmlns:xlink="http://www.w3.org/1999/xlink" version="1.1"><rect x="0" y="0" width="320" height="100" fill="#ffffff"></rect><defs><linearGradient id="grad1_0" x1="68.8%" y1="100%" x2="100%" y2="0%"><stop offset="-14.000000000000007%" stop-color="#60a5fa" stop-opacity="1"></stop><stop offset="114.00000000000001%" stop-color="#60a5fa" stop-opacity="1"></stop></linearGradient></defs><defs><linearGradient id="grad1_1" x1="68.8%" y1="100%" x2="100%" y2="0%"><stop offset="-14.000000000000007%" stop-color="#60a5fa" stop-opacity="1"></stop><stop offset="114.00000000000001%" stop-color="#b9d1fd" stop-opacity="1"></stop></linearGradient></defs><defs><linearGradient id="grad1_2" x1="68.8%" y1="100%" x2="100%" y2="0%"><stop offset="-14.000000000000007%" stop-color="#ffffff" stop-opacity="1"></stop><stop offset="114.00000000000001%" stop-color="#b9d1fd" stop-opacity="1"></stop></linearGradient></defs><defs><linearGradient id="grad2_0" x1="0%" y1="100%" x2="31.3%" y2="0%"><stop offset="-14.000000000000007%" stop-color="#60a5fa" stop-opacity="1"></stop><stop offset="114.00000000000001%" stop-color="#60a5fa" stop-opacity="1"></stop></linearGradient></defs><defs><linearGradient id="grad2_1" x1="0%" y1="100%" x2="31.3%" y2="0%"><stop offset="-14.000000000000007%" stop-color="#b9d1fd" stop-opacity="1"></stop><stop offset="114.00000000000001%" stop-color="#60a5fa" stop-opacity="1"></stop></linearGradient></defs><defs><linearGradient id="grad2_2" x1="0%" y1="100%" x2="31.3%" y2="0%"><stop offset="-14.000000000000007%" stop-color="#b9d1fd" stop-opacity="1"></stop><stop offset="114.00000000000001%" stop-color="#ffffff" stop-opacity="1"></stop></linearGradient></defs><g transform="translate(320, 100)"><path d="M-100 0C-96.8 -17.1 -93.7 -34.2 -85.7 -49.5C-77.8 -64.8 -65.1 -78.5 -50 -86.6C-34.9 -94.7 -17.5 -97.4 0 -100L0 0Z" fill="#dde8fe"></path><path d="M-66.7 0C-64.6 -11.4 -62.4 -22.8 -57.2 -33C-51.9 -43.2 -43.4 -52.3 -33.3 -57.7C-23.3 -63.2 -11.6 -64.9 0 -66.7L0 0Z" fill="#91bafc"></path><path d="M-33.3 0C-32.3 -5.7 -31.2 -11.4 -28.6 -16.5C-25.9 -21.6 -21.7 -26.2 -16.7 -28.9C-11.6 -31.6 -5.8 -32.5 0 -33.3L0 0Z" fill="#60a5fa"></path></g><g transform="translate(0, 0)"><path d="M100 0C97.6 17.9 95.3 35.8 86.6 50C77.9 64.2 63 74.6 47.5 82.3C32 90 16 95 0 100L0 0Z" fill="#dde8fe"></path><path d="M66.7 0C65.1 11.9 63.5 23.9 57.7 33.3C52 42.8 42 49.7 31.7 54.8C21.3 60 10.7 63.3 0 66.7L0 0Z" fill="#91bafc"></path><path d="M33.3 0C32.5 6 31.8 11.9 28.9 16.7C26 21.4 21 24.9 15.8 27.4C10.7 30 5.3 31.7 0 33.3L0 0Z" fill="#60a5fa"></path></g></svg>